<svg width="93" height="49" viewBox="0 0 93 49" fill="none" xmlns="http://www.w3.org/2000/svg">
<g clip-path="url(#clip0_46_24)">
<path d="M40.4636 31.2784C39.4644 31.5228 38.9666 31.6397 37.9673 31.8592C37.9673 33.4139 37.9673 34.1895 37.9673 35.7442C36.0115 36.1728 35.0336 36.364 33.0778 36.6579C33.0778 35.1032 33.0778 34.3276 33.0778 32.7729C30.6775 33.1377 28.2524 33.3467 25.8236 33.3502C25.8236 31.8132 25.8236 31.0447 25.8236 29.5041C28.1137 25.9697 30.3326 22.3999 32.5053 18.7947C34.3331 18.5432 36.168 18.2033 37.9638 17.7995C37.9638 21.2029 37.9638 24.6098 37.9638 28.0132C38.963 27.7936 39.4609 27.6767 40.4601 27.4324C40.4636 28.9729 40.4636 29.7414 40.4636 31.2784ZM33.0814 28.9269C33.0814 27.1668 33.0814 25.4066 33.0814 23.6501C31.9755 25.5518 30.8589 27.4465 29.721 29.3306C31.0651 29.2102 31.7372 29.1287 33.0814 28.9269Z" fill="white"/>
<path d="M55.0361 20.6433C55.0361 21.9537 55.0361 22.6089 55.0361 23.9192C53.1123 24.4221 52.1486 24.6913 50.2248 25.2296C50.2248 27.2199 50.2248 28.2115 50.2248 30.2018C48.8984 30.5737 48.237 30.7614 46.9106 31.1332C46.9106 29.1429 46.9106 28.1513 46.9106 26.161C44.9868 26.6993 44.0232 26.9684 42.0994 27.4642C42.0994 26.1539 42.0994 25.4987 42.0994 24.1884C44.0232 23.6926 44.9868 23.4234 46.9106 22.8851C46.9106 20.8948 46.9106 19.9032 46.9106 17.9129C48.237 17.541 48.8984 17.3533 50.2248 16.9814C50.2248 18.9718 50.2248 19.9634 50.2248 21.9537C52.1522 21.4154 53.1123 21.1427 55.0361 20.6433Z" fill="white"/>
<path d="M67.5283 24.886C69.2032 24.7302 70.0388 24.6842 71.7137 24.6842C71.7137 26.2601 71.7137 27.0463 71.7137 28.6188C67.0482 28.7392 62.6139 29.4333 58.0658 30.4532C58.0658 28.8773 58.0658 28.0911 58.0658 26.5187C59.8189 26.1078 60.6937 25.9166 62.4468 25.5979C62.4468 22.7966 62.4468 19.9952 62.4468 17.1939C60.7826 18.228 59.4846 18.9505 58.5459 19.2976C58.5459 17.7074 58.5459 16.9141 58.5459 15.324C60.5265 14.4741 62.5357 13.2593 63.6807 11.3753C65.2205 11.1238 65.9886 11.0211 67.5283 10.8759C67.5283 15.5471 67.5283 20.2184 67.5283 24.886Z" fill="white"/>
<path d="M11.4254 19.1063C10.9844 19.1063 10.5862 18.8124 10.4688 18.3697C10.3337 17.8455 10.6502 17.3072 11.1765 17.1727L61.3907 4.24978C61.917 4.1152 62.4575 4.43039 62.5926 4.95453C62.7278 5.47867 62.4113 6.01698 61.885 6.15156L11.6707 19.0744C11.5889 19.0957 11.5072 19.1063 11.4254 19.1063Z" fill="white"/>
<path d="M0.988431 14.892C0.551044 14.892 0.152772 14.6016 0.035424 14.1624C-0.10326 13.6383 0.209668 13.1 0.735956 12.9583L49.5385 0.0319024C50.0648 -0.106216 50.6053 0.205435 50.7475 0.729575C50.8862 1.25372 50.5733 1.79202 50.047 1.93368L1.24091 14.8566C1.15556 14.8814 1.07022 14.892 0.988431 14.892Z" fill="white"/>
<path d="M41.8007 49C41.3598 49 40.9615 48.706 40.8442 48.2634C40.709 47.7392 41.0255 47.2009 41.5518 47.0663L91.7661 34.1399C92.2924 34.0053 92.8329 34.3205 92.968 34.8447C93.1031 35.3688 92.7866 35.9071 92.2603 36.0417L42.0461 48.9646C41.9643 48.9894 41.8825 49 41.8007 49Z" fill="white"/>
<path d="M31.3604 44.7856C30.923 44.7856 30.5247 44.4952 30.4074 44.0561C30.2687 43.5319 30.5816 42.9936 31.1079 42.852L79.9104 29.9291C80.4367 29.791 80.9772 30.1026 81.1195 30.6268C81.2581 31.1509 80.9452 31.6892 80.4189 31.8309L31.6164 44.7537C31.5311 44.775 31.4457 44.7856 31.3604 44.7856Z" fill="white"/>
</g>
<defs>
<clipPath id="clip0_46_24">
<rect width="93" height="49" fill="white"/>
</clipPath>
</defs>
</svg>
