<svg width="61" height="63" viewBox="0 0 61 63" fill="none" xmlns="http://www.w3.org/2000/svg">
<g clip-path="url(#clip0_46_110)">
<path d="M31.9917 0.0356282C33.2843 0.0356282 34.5847 -0.0633164 35.8655 0.0633327C37.1699 0.189982 38.3443 0.767818 38.3916 2.30344C38.4349 3.76386 37.3354 4.46043 36.1019 4.57125C34.7108 4.69394 34.4586 5.36281 34.4586 6.57785C34.4547 10.318 34.4862 10.1082 38.0132 11.2441C40.9019 12.1742 43.6998 13.5158 46.356 15.004C47.7707 15.7955 48.6456 15.9063 49.5796 14.5805C49.7332 14.3628 49.95 14.1887 50.1549 14.0106C51.479 12.8707 52.6179 11.8061 50.817 10.0211C50.08 9.29288 50.08 8.07784 50.9313 7.20713C51.8376 6.28497 52.9923 6.30872 53.8632 7.08444C56.1056 9.09104 58.2927 11.1728 60.3656 13.3575C61.1301 14.161 61.2956 15.3918 60.3892 16.3179C59.3804 17.3549 58.0681 17.1412 57.1538 16.3338C55.8928 15.2177 55.207 15.7045 54.2573 16.6979C51.6288 19.4446 51.7352 19.318 53.7174 22.4802C58.6198 30.2929 59.4277 38.5884 55.8021 47.1016C51.5539 57.0792 41.8871 63.2019 31.0892 62.9921C29.6981 62.9644 28.2991 62.7546 26.9356 62.4578C26.4312 62.347 26.0253 61.7612 25.576 61.3892C26.108 61.1676 26.64 60.7559 27.176 60.748C30.0685 60.7124 33.0202 61.1636 35.8458 60.7441C45.9855 59.2282 54.1076 50.9723 55.7903 40.8404C58.0996 26.9446 48.5234 14.066 34.5847 12.5106C32.2123 12.2454 29.7651 12.6966 27.3533 12.7164C26.7661 12.7203 26.1789 12.3404 25.5918 12.1385C26.0647 11.7388 26.4784 11.1253 27.0183 10.971C29.3474 10.314 29.3592 10.3654 29.3631 7.93536C29.3631 7.44856 29.304 6.95383 29.3789 6.4789C29.5878 5.17679 29.1267 4.64645 27.7632 4.59895C26.4666 4.55542 25.5366 3.74011 25.3238 2.40634C25.1583 1.38523 26.3918 0.19394 27.7986 0.075206C29.1897 -0.0435275 30.5927 0.0514593 31.9917 0.0514593C31.9917 0.0475015 31.9917 0.0435437 31.9917 0.0356282Z" fill="white"/>
<path d="M51.4159 37.7771C49.7253 37.7771 48.2711 37.88 46.8446 37.7296C46.2574 37.6662 45.7254 37.0647 45.1658 36.7085C45.7057 36.3839 46.218 35.8615 46.7933 35.7784C47.8495 35.624 48.9411 35.719 50.0169 35.723C50.8642 35.7269 51.3765 35.3866 51.2701 34.4644C50.8287 30.6768 49.4889 27.2771 46.9313 24.1979C45.9185 25.0924 45.0515 25.9749 44.0623 26.6794C43.55 27.0436 42.8131 27.099 42.1786 27.2929C42.3796 26.6082 42.4033 25.7612 42.8249 25.2665C43.5855 24.3839 44.5904 23.7111 45.6466 22.8166C42.9747 20.1491 40.2516 18.5304 37.0713 17.7111C33.0477 16.6742 33.0438 16.6979 32.8428 20.8021C32.8271 21.1227 32.8822 21.5304 32.7167 21.748C32.4212 22.1319 32.0152 22.5594 31.5857 22.6544C31.3768 22.7019 30.8015 22.0686 30.7542 21.6966C30.6163 20.5765 30.632 19.4327 30.632 18.3008C30.6281 17.2876 30.1591 16.8958 29.2054 17.1689C27.3493 17.7032 25.5129 18.3325 23.6371 18.7916C23.0381 18.938 22.3366 18.6649 21.6785 18.5818C22.0253 18.0594 22.2578 17.2916 22.7425 17.0581C28.3306 14.3509 34.1354 14.1214 39.8102 16.4842C48.3815 20.0581 53.0711 26.7784 53.4454 36.0238C53.7804 44.3232 50.0997 50.909 43.0338 55.2982C37.6467 58.6465 31.7946 59.4815 25.6626 57.5106C25.3553 57.4116 24.9651 57.3997 24.7563 57.1939C24.4134 56.8575 24.1927 56.3984 23.9169 55.9908C24.3898 55.7573 24.8942 55.2744 25.3316 55.3338C26.4942 55.4842 27.6173 55.9116 28.7759 56.1491C30.0488 56.4103 30.7266 55.9235 30.6399 54.5185C30.5887 53.6596 30.5729 52.7691 30.7345 51.9341C30.8172 51.5106 31.3414 51.1781 31.6645 50.8021C32.0389 51.186 32.6615 51.5264 32.7404 51.9657C32.9177 52.9631 32.8625 54.0119 32.8428 55.037C32.8231 55.9275 33.1423 56.2995 34.0842 56.2362C37.7688 55.9868 40.9176 54.4037 43.8259 52.2823C44.1018 52.0805 44.1412 51.0673 43.8929 50.719C43.2387 49.8087 42.2811 49.1201 41.6111 48.2177C41.3116 47.814 41.4102 47.1135 41.3314 46.5475C41.9067 46.6465 42.6239 46.5633 43.0298 46.88C43.8692 47.537 44.4801 48.4868 45.3195 49.1478C45.6741 49.4288 46.6554 49.5277 46.8643 49.2823C49.6386 46.0844 51.0179 42.3008 51.4159 37.7771Z" fill="white"/>
<path d="M32.9729 35.1056C34.7739 34.2111 36.2201 33.3998 37.7452 32.7823C38.3009 32.5568 39.0457 32.8021 39.7038 32.8338C39.3413 33.3404 39.0891 34.0409 38.5965 34.3259C36.7758 35.3707 34.8921 36.3087 33.0084 37.2349C31.7 37.876 31.0025 37.504 30.9749 36.0554C30.9158 32.7072 30.9237 29.3509 30.9986 26.0027C31.0104 25.5356 31.5384 25.0805 31.8261 24.6214C32.165 25.0845 32.7719 25.5356 32.7956 26.0145C32.9059 28.2784 32.8468 30.5541 32.8626 32.8219C32.8704 33.4552 32.9256 34.0884 32.9729 35.1056Z" fill="white"/>
<path d="M8.32299 44.5567C10.0412 44.5567 11.7673 44.4617 13.4736 44.6082C14.0608 44.6596 14.6007 45.2968 15.1643 45.6689C14.6323 46.029 14.1081 46.69 13.5682 46.7058C9.97026 46.8008 6.37229 46.8008 2.77432 46.7018C2.26201 46.69 1.76941 45.9815 1.26892 45.5937C1.79305 45.2493 2.30142 44.6438 2.84525 44.6082C4.66591 44.4776 6.49445 44.5567 8.32299 44.5567Z" fill="white"/>
<path d="M7.22747 33.2177C5.29253 33.2177 3.35364 33.281 1.42264 33.1742C0.933975 33.1425 0.472899 32.5647 0 32.2362C0.461076 31.8958 0.918212 31.2705 1.38717 31.2626C5.31223 31.1834 9.23729 31.1834 13.1584 31.2665C13.6392 31.2744 14.1121 31.8918 14.585 32.2243C14.0687 32.5568 13.5643 33.1465 13.0323 33.1781C11.1052 33.2929 9.16241 33.2256 7.22747 33.2256C7.22747 33.2177 7.22747 33.2177 7.22747 33.2177Z" fill="white"/>
<path d="M7.23926 40.033C5.41072 40.033 3.57824 40.1042 1.75364 39.9895C1.2571 39.9578 0.79996 39.376 0.32312 39.0515C0.79996 38.7151 1.26892 38.0976 1.75364 38.0858C5.41072 38.0027 9.06781 37.9987 12.7249 38.0778C13.2017 38.0897 13.6667 38.7032 14.1396 39.0356C13.6667 39.3681 13.2136 39.9578 12.7209 39.9895C10.9003 40.1003 9.06781 40.029 7.23926 40.033Z" fill="white"/>
<path d="M11.9249 51.2295C13.6983 51.2295 15.4756 51.1622 17.2411 51.2691C17.7534 51.3008 18.242 51.8113 18.7386 52.1042C18.2933 52.4802 17.8519 53.1728 17.3987 53.1807C13.6431 53.2678 9.8796 53.2638 6.124 53.1886C5.70233 53.1807 5.28854 52.5395 4.87476 52.1873C5.34765 51.8707 5.80085 51.3047 6.28951 51.277C8.1614 51.1662 10.0451 51.2335 11.9249 51.2295Z" fill="white"/>
<path d="M10.057 24.9459C11.7201 24.9459 13.391 24.8667 15.0461 24.9894C15.586 25.029 16.0865 25.6029 16.6067 25.9314C16.1298 26.2718 15.6569 26.8931 15.1722 26.905C11.7398 26.9881 8.30337 26.9842 4.86698 26.8931C4.39408 26.8813 3.93694 26.2361 3.47192 25.8879C3.94876 25.5752 4.40984 25.0211 4.90638 24.9894C6.6167 24.8786 8.33884 24.9459 10.057 24.9459Z" fill="white"/>
<path d="M15.6608 21.1939C14.5889 21.1939 13.5052 21.277 12.4451 21.1504C12.0313 21.0989 11.6767 20.5726 11.2983 20.2599C11.6885 19.9037 12.0668 19.2546 12.4688 19.2348C14.6638 19.1359 16.8707 19.1438 19.0696 19.2309C19.4637 19.2467 19.8342 19.8127 20.2125 20.1214C19.8223 20.4776 19.4677 21.0831 19.0381 21.1425C17.9307 21.2929 16.7879 21.1979 15.6608 21.1939Z" fill="white"/>
<path d="M17.7494 58.504C16.6263 58.504 15.4913 58.5989 14.3879 58.4565C13.9465 58.4011 13.5722 57.8272 13.1663 57.4868C13.584 57.1583 13.9899 56.5646 14.4194 56.5449C16.5514 56.4459 18.6952 56.4459 20.8312 56.5449C21.2489 56.5646 21.6351 57.1821 22.0371 57.5224C21.6233 57.8509 21.241 58.4011 20.7918 58.4644C19.7987 58.6069 18.7662 58.5079 17.7494 58.5079C17.7494 58.5119 17.7494 58.5079 17.7494 58.504Z" fill="white"/>
</g>
<defs>
<clipPath id="clip0_46_110">
<rect width="61" height="63" fill="white"/>
</clipPath>
</defs>
</svg>
