<svg width="51" height="54" viewBox="0 0 51 54" fill="none" xmlns="http://www.w3.org/2000/svg">
<g clip-path="url(#clip0_46_60)">
<path d="M27.0743 54C20.3866 54 13.7013 54 7.0136 54C6.83233 53.928 6.65831 53.832 6.46979 53.7912C2.69452 52.9752 0.0141232 49.74 0.00928935 45.8856C-0.00521233 33.2952 -0.00521233 20.7048 0.00928935 8.1144C0.0141232 4.4976 2.43107 1.344 5.8873 0.3408C6.26435 0.2304 6.63898 0.1128 7.01602 0C13.7037 0 20.389 0 27.0767 0C27.1758 0.06 27.2676 0.1512 27.374 0.1776C31.6326 1.2336 33.936 4.1088 33.9674 8.4312C33.9795 10.2288 34.0061 12.0288 33.9529 13.8264C33.9287 14.6088 34.1873 15.0048 34.9028 15.3864C40.8267 18.5496 44.0412 23.5392 44.1282 30.18C44.2128 36.7248 41.1723 41.7504 35.4562 45.0648C34.4822 45.6288 33.8321 46.1088 33.8006 47.3592C33.7789 48.1872 33.3366 49.0416 32.9378 49.812C31.7051 52.1808 29.5686 53.3496 27.0743 54ZM30.6562 13.8264C30.6562 11.9784 30.6707 10.2672 30.6538 8.556C30.6199 5.2872 28.6574 3.3624 25.3582 3.36C19.8428 3.3552 14.3273 3.3576 8.81181 3.36C5.26615 3.3624 3.39302 5.2272 3.39302 8.7624C3.3906 20.916 3.39302 33.0696 3.39302 45.2232C3.39302 45.5832 3.38335 45.9456 3.41235 46.3008C3.61779 48.672 5.55377 50.5968 7.95138 50.616C13.9889 50.664 20.0289 50.6616 26.0688 50.6184C28.1933 50.604 29.8828 49.1352 30.3951 46.9848C24.6791 47.8728 19.6712 46.3656 15.253 42.3792C15.253 43.1424 15.2965 43.6224 15.2433 44.0904C15.1442 44.9712 14.5327 45.576 13.7303 45.4872C13.1381 45.4224 12.5508 44.856 12.0747 44.4C11.8741 44.208 11.9297 43.7184 11.9297 43.3632C11.9224 34.6872 11.9248 26.0136 11.9248 17.3376C11.9248 17.1384 11.9152 16.9344 11.9442 16.74C12.094 15.7704 12.6765 15.1968 13.6578 15.2376C14.6197 15.276 15.2143 15.8304 15.2578 16.8408C15.2747 17.2632 15.2602 17.6856 15.2602 18.4296C17.4741 16.332 19.8041 14.9808 22.4506 14.1936C25.1069 13.404 27.8138 13.368 30.6562 13.8264ZM15.2602 30.3528C15.2602 32.232 15.2216 34.1112 15.282 35.988C15.3013 36.5496 15.4632 37.1928 15.7799 37.6464C19.079 42.3672 23.5866 44.5248 29.3776 43.6752C35.5481 42.7704 40.1717 37.7784 40.7953 31.476C41.3608 25.7424 37.6895 19.8888 32.2127 17.7984C26.354 15.5616 19.8041 17.4816 16.1883 22.4568C15.5527 23.3328 15.1805 24.2016 15.2361 25.3176C15.3231 26.9928 15.2602 28.6752 15.2602 30.3528Z" fill="white"/>
<path d="M45.0736 8.4384C46.4972 8.4384 47.7395 8.4216 48.9843 8.4432C50.2314 8.4648 51.0435 9.1848 51 10.1832C50.9565 11.1312 50.1662 11.7624 48.977 11.772C47.7323 11.7816 46.4851 11.7744 45.0664 11.7744C45.2984 12.1152 45.47 12.3408 45.6126 12.5856C46.0815 13.3872 46.0477 14.2656 45.267 14.6976C44.7159 15 43.638 15.1104 43.2247 14.7768C41.8567 13.68 40.6265 12.396 39.4591 11.0808C38.821 10.3608 39.0337 9.5112 39.7249 8.8272C40.7497 7.812 41.7624 6.7848 42.7993 5.7816C43.7105 4.9008 44.612 4.8 45.3371 5.5368C46.1129 6.324 46.0718 7.1616 45.3419 7.98C45.2718 8.0592 45.2308 8.1696 45.0736 8.4384Z" fill="white"/>
<path d="M16.9573 10.092C15.3476 10.092 13.7379 10.1064 12.1282 10.0872C11.0019 10.0752 10.272 9.44639 10.2261 8.50799C10.1778 7.51439 10.9198 6.76799 12.0944 6.75839C15.3524 6.73199 18.6129 6.73199 21.8734 6.75839C23.0867 6.76799 23.7683 7.44239 23.7441 8.47919C23.7175 9.52559 23.0625 10.08 21.7864 10.0896C20.1767 10.1016 18.567 10.092 16.9573 10.092Z" fill="white"/>
<path d="M30.1321 27.0312C30.5865 27.2592 31.065 27.4464 31.4832 27.7272C31.8602 27.9792 32.4862 28.4064 32.4354 28.6296C32.3388 29.0544 31.8723 29.4288 31.4952 29.748C31.1544 30.036 30.5381 30.1296 30.3665 30.468C29.5593 32.076 28.3 32.9904 26.2045 33.6048C27.3719 34.6464 28.6118 35.6208 29.6656 36.7632C30.0644 37.1976 30.033 38.0208 30.1973 38.6688C29.5375 38.5392 28.6916 38.6232 28.2517 38.2416C26.5453 36.7656 24.9308 35.1792 23.3622 33.5544C22.9223 33.0984 22.7604 32.3736 22.4704 31.7736C23.0915 31.5408 23.6958 31.2072 24.3362 31.0992C25.5616 30.8928 26.9997 31.5024 28.1937 29.7816C26.6154 29.7816 25.3272 29.8848 24.0655 29.736C23.5 29.6688 22.9948 29.1 22.4607 28.7592C22.9755 28.4064 23.4589 27.8184 24.0075 27.7488C25.2474 27.5952 26.5212 27.7008 27.7804 27.7008C27.8408 27.5376 27.9012 27.3744 27.9617 27.2112C27.3429 26.9712 26.7435 26.6184 26.103 26.52C25.2909 26.3976 24.4305 26.5872 23.6281 26.4384C23.2027 26.3592 22.5888 25.8792 22.5501 25.5264C22.5114 25.176 23.0794 24.4368 23.3985 24.4272C26.103 24.336 28.8124 24.3384 31.517 24.4152C31.8529 24.4248 32.4765 25.0728 32.433 25.3368C32.3629 25.7544 31.8965 26.1864 31.4904 26.4432C31.2076 26.6208 30.746 26.5176 30.3641 26.5392C30.2892 26.7024 30.2118 26.8656 30.1321 27.0312Z" fill="white"/>
</g>
<defs>
<clipPath id="clip0_46_60">
<rect width="51" height="54" fill="white"/>
</clipPath>
</defs>
</svg>
