<svg width="55" height="52" viewBox="0 0 55 52" fill="none" xmlns="http://www.w3.org/2000/svg">
<g clip-path="url(#clip0_46_90)">
<path d="M16.9499 33.7888C17.8202 34.481 18.6608 35.1567 19.5046 35.8291C20.5562 36.6663 21.6011 37.5101 22.6725 38.3243C22.8834 38.4858 23.1933 38.5979 23.457 38.6012C26.1468 38.6209 28.8367 38.6078 31.5265 38.6176C31.8364 38.6176 32.077 38.5319 32.3176 38.3408C34.1636 36.874 36.0129 35.4171 37.8687 33.9602C38.0467 33.8217 38.0204 33.7064 37.9182 33.5251C37.0282 31.9265 36.1315 30.3278 35.2745 28.7094C34.7899 27.7997 35.1163 26.6691 35.9535 26.1219C36.7974 25.5682 37.9841 25.7033 38.617 26.4647C38.884 26.7845 39.0785 27.1701 39.2796 27.536C40.3641 29.4972 41.4387 31.4617 42.5166 33.4229C43.044 34.3821 42.8463 35.4072 42.0123 36.129C39.8795 37.9749 37.7534 39.824 35.614 41.6666C35.4063 41.8446 35.3239 42.0292 35.3239 42.306C35.3338 45.1935 35.3272 48.0809 35.3272 50.965C35.3272 51.7791 35.113 51.9967 34.2988 51.9967C29.7498 51.9967 25.2008 52 20.6551 51.9967C19.8969 51.9967 19.6629 51.7627 19.6629 51.0013C19.6596 48.1138 19.6563 45.2264 19.6662 42.339C19.6662 42.039 19.5837 41.8314 19.3497 41.6303C17.7773 40.2855 16.2182 38.9242 14.6524 37.5728C14.0854 37.0816 13.5151 36.5938 12.9449 36.106C12.1999 35.4665 11.9724 34.3458 12.4438 33.4855C13.6635 31.254 14.8864 29.0259 16.1193 26.801C16.6599 25.8286 17.9026 25.4957 18.9047 26.033C19.8606 26.5504 20.2167 27.7733 19.6793 28.7753C18.875 30.2718 18.0509 31.7584 17.2334 33.2482C17.1411 33.413 17.0587 33.5778 16.9499 33.7888Z" fill="white"/>
<path d="M36.8304 52C36.8304 49.0269 36.837 46.1164 36.8205 43.2059C36.8172 42.7906 36.9128 42.4906 37.2556 42.2302C37.7698 41.838 38.2247 41.3765 38.7291 40.9744C38.8774 40.8557 39.1016 40.7667 39.2895 40.7634C41.3728 40.7503 43.4561 40.7569 45.5394 40.747C45.7141 40.747 45.9251 40.714 46.0536 40.6118C47.6919 39.3296 49.3203 38.0309 50.9883 36.7092C50.7971 36.3565 50.6125 36.0104 50.4246 35.6709C49.8511 34.6326 49.2709 33.5976 48.7072 32.556C48.282 31.7683 48.4633 30.8783 49.1324 30.3476C49.7653 29.8433 50.6949 29.8499 51.3179 30.4037C51.5388 30.5981 51.7069 30.8684 51.852 31.1288C52.8178 32.8692 53.7704 34.6161 54.7264 36.3598C55.2044 37.2333 55.0527 38.0474 54.3012 38.6968C52.5277 40.2295 50.7576 41.7721 48.9775 43.3015C48.7764 43.4729 48.7039 43.6542 48.7072 43.9113C48.7171 46.3109 48.7138 48.7105 48.7138 51.11C48.7138 51.8253 48.5424 52 47.8304 52C44.2967 52 40.763 52 37.2292 52C37.0743 52 36.9227 52 36.8304 52Z" fill="white"/>
<path d="M3.99849 36.7026C4.2556 36.9103 4.50943 37.1146 4.76654 37.3157C6.08839 38.3672 7.41023 39.412 8.72549 40.4701C8.97601 40.6712 9.22983 40.7602 9.55288 40.7569C11.5703 40.7437 13.5876 40.7569 15.605 40.7437C15.905 40.7404 16.1258 40.8327 16.3434 41.0304C16.851 41.4919 17.3884 41.9171 17.8861 42.3917C18.0279 42.5269 18.1399 42.7642 18.1399 42.9587C18.1564 45.6879 18.1498 48.4171 18.1564 51.1463C18.1564 51.4067 18.196 51.6671 18.2223 51.9736C18.0806 51.9835 17.9421 51.9967 17.8037 51.9967C14.2304 51.9967 10.6572 51.9967 7.08389 51.9967C6.48725 51.9967 6.27958 51.7891 6.27628 51.1859C6.27299 48.7599 6.26639 46.3339 6.27628 43.908C6.27628 43.6476 6.20376 43.4729 6.00268 43.2982C4.22594 41.7655 2.45908 40.2229 0.688927 38.6836C0.210953 38.2683 -0.0692386 37.7673 0.0164672 37.1212C0.0428381 36.9037 0.102173 36.6762 0.20436 36.4851C1.21635 34.6194 2.23493 32.7571 3.26999 30.908C3.72489 30.0938 4.63139 29.7741 5.43571 30.1004C6.39495 30.4861 6.79052 31.6134 6.28287 32.5396C5.60052 33.7888 4.90829 35.0315 4.22264 36.2774C4.14682 36.4059 4.08419 36.5345 3.99849 36.7026Z" fill="white"/>
<path d="M27.4456 36.9036C24.1756 36.8542 21.588 34.2074 21.6506 30.9871C21.7132 27.7107 24.3734 25.1826 27.6994 25.2386C30.7914 25.2913 33.3758 27.9876 33.3395 31.1222C33.3 34.3524 30.6497 36.9531 27.4456 36.9036Z" fill="white"/>
<path d="M17.596 24.8068C16.9236 25.1694 16.2808 25.5254 15.6248 25.8484C15.5655 25.8781 15.3611 25.7297 15.3018 25.621C14.626 24.4014 13.9667 23.1686 13.3009 21.9425C12.2658 20.034 11.234 18.1189 10.1825 16.2171C10.0276 15.9369 10.0177 15.7325 10.2748 15.538C10.6704 15.2381 11.0429 14.8953 11.4714 14.6547C11.8669 14.4338 12.045 14.5393 12.2592 14.9349C13.9568 18.0596 15.6512 21.1843 17.3455 24.3124C17.4279 24.4607 17.5005 24.6156 17.596 24.8068Z" fill="white"/>
<path d="M39.4873 25.9407C38.8577 25.5979 38.2973 25.2781 37.7204 24.9914C37.4336 24.8496 37.4204 24.7112 37.5655 24.4442C38.8049 22.1798 40.0279 19.9087 41.2607 17.641C41.7618 16.7148 42.276 15.7951 42.7639 14.8623C42.9122 14.5789 43.1034 14.5261 43.377 14.6085C44.0297 14.803 44.4714 15.2743 44.8834 15.7721C44.9395 15.838 44.8801 16.0423 44.8175 16.1544C43.5682 18.4716 42.309 20.7855 41.053 23.1027C40.5948 23.9465 40.1367 24.7936 39.6752 25.6374C39.6257 25.7297 39.5598 25.8253 39.4873 25.9407Z" fill="white"/>
<path d="M42.1474 29.5763C43.6737 29.3719 45.6284 30.5322 46.4492 32.088C47.4381 33.9602 47.1744 36.1719 45.7767 37.7178C44.5406 39.089 42.3815 39.7218 40.875 39.112C41.2442 38.7824 41.5903 38.4726 41.9431 38.1628C42.309 37.843 42.6814 37.5266 43.0506 37.2102C44.3329 36.1191 44.6922 34.3227 43.9011 32.8362C43.3638 31.8243 42.8034 30.8255 42.2562 29.8202C42.2232 29.7543 42.1969 29.6818 42.1474 29.5763Z" fill="white"/>
<path d="M14.0722 39.1022C12.9548 39.6691 10.7 39.1219 9.57267 38.0507C7.94756 36.5048 7.49596 34.392 8.3662 32.4242C9.13755 30.6772 11.0626 29.4214 12.8328 29.5565C12.7702 29.6983 12.724 29.8235 12.6614 29.9389C12.1373 30.8981 11.5999 31.8506 11.0857 32.8131C10.3308 34.2305 10.5352 35.8258 11.6692 36.9564C12.3647 37.6486 13.1361 38.2649 13.8711 38.9176C13.9338 38.9703 13.9865 39.0231 14.0722 39.1022Z" fill="white"/>
<path d="M41.2937 17.4959L40.9641 14.1998L48.8753 0.355984C48.8753 0.355984 51.1828 -0.63286 52.831 0.685598C54.4792 2.00406 53.8199 3.32252 53.8199 3.32252L46.2383 17.1663L43.5418 18.4716L41.2937 17.4959Z" fill="white"/>
<path d="M13.736 17.4959L14.0656 14.1998L6.15432 0.355984C6.15432 0.355984 3.84686 -0.63286 2.19867 0.685598C0.550481 2.00406 1.20976 3.32252 1.20976 3.32252L8.79142 17.1663L11.4879 18.4716L13.736 17.4959Z" fill="white"/>
<path d="M31.1507 19.4703C30.1124 19.8988 28.9718 20.1329 27.7785 20.1329C22.8636 20.1329 18.8783 16.1478 18.8783 11.2333C18.8783 8.33265 20.2661 5.75507 22.4186 4.13007C21.8813 7.40314 21.4594 16.072 31.1507 19.4703Z" fill="white"/>
<path d="M31.7111 19.2166L31.8858 18.6727C21.1199 15.1788 23.1208 5.17168 23.5691 3.39176C23.9548 3.18081 24.3602 3.00282 24.7789 2.85449C24.2284 5.8441 23.4867 14.7701 33.1154 18.3563C32.677 18.6859 32.2089 18.9726 31.7111 19.2166Z" fill="white"/>
<path d="M36.6787 11.2333C36.6787 13.735 35.6437 15.9995 33.979 17.6113C23.7141 14.1471 25.3392 4.65417 25.8403 2.54793C26.4633 2.40619 27.1127 2.33368 27.7785 2.33368C32.6934 2.33368 36.6787 6.31872 36.6787 11.2333Z" fill="white"/>
</g>
<defs>
<clipPath id="clip0_46_90">
<rect width="55" height="52" fill="white"/>
</clipPath>
</defs>
</svg>
