<svg width="51" height="51" viewBox="0 0 51 51" fill="none" xmlns="http://www.w3.org/2000/svg">
<g clip-path="url(#clip0_46_41)">
<path d="M25.4046 37.081C24.8321 36.4852 24.2972 35.9455 23.781 35.384C23.6997 35.2967 23.684 35.1282 23.6809 35.0003C23.6715 33.949 23.6653 32.8978 23.684 31.8465C23.6872 31.6531 23.7716 31.4379 23.8811 31.2726C25.9802 28.1188 25.9802 24.4503 23.878 21.2497C23.7622 21.0719 23.684 20.8317 23.684 20.6227C23.6746 14.9796 23.6684 9.33653 23.684 3.69344C23.6872 1.90287 24.6194 0.567741 26.1053 0.155973C26.4901 0.0499113 26.903 0.00935837 27.3034 0.00935837C33.9948 0 40.6924 0 47.3868 0C49.4578 0 50.8999 1.38504 50.9937 3.45012C51 3.57178 50.9969 3.69656 50.9969 3.81822C50.9969 18.2925 50.9969 32.7668 51 47.2411C51 48.5668 50.6027 49.7241 49.4452 50.4416C48.9478 50.7504 48.3034 50.9657 47.7216 50.9688C40.7643 51.0031 33.8039 50.9969 26.8436 50.9875C25.9332 50.9875 25.195 50.5789 24.5568 49.8458C25.2482 49.4091 25.9082 48.9848 26.5714 48.5731C26.6371 48.5325 26.7372 48.5263 26.8185 48.5325C27.4786 48.5731 28.1418 48.6604 28.8019 48.6635C34.7237 48.6729 40.6454 48.6323 46.5672 48.6916C48.3691 48.7103 48.8102 47.8681 48.8039 46.4175C48.7695 38.5658 48.7695 30.7173 48.7664 22.8656C48.7664 16.6797 48.7821 10.4939 48.7883 4.30797C48.7883 2.8855 48.2346 2.33023 46.8175 2.32711C45.5537 2.324 44.2867 2.33959 43.0229 2.32088C42.4723 2.31152 42.1032 2.46749 42.0313 3.07266C41.9875 3.43452 41.7216 3.56866 41.3931 3.56866C38.6872 3.57178 35.9812 3.57178 33.2753 3.56866C32.928 3.56866 32.6934 3.39397 32.6527 3.05083C32.5839 2.46437 32.2273 2.31464 31.6986 2.32088C30.416 2.33647 29.1335 2.32711 27.8509 2.32711C26.4713 2.32711 25.8957 2.90109 25.8957 4.27054C25.8957 14.9235 25.8926 25.5795 25.9051 36.2325C25.9113 36.6848 25.8707 37.0373 25.4046 37.081Z" fill="white"/>
<path d="M21.3692 46.8075C22.4171 46.8137 23.4557 46.8511 24.3535 46.1742C25.3483 45.4255 25.8113 44.446 25.6079 43.2045C25.5548 42.8769 25.6236 42.7116 25.927 42.5463C28.0355 41.3921 30.1345 40.2192 32.2305 39.04C32.8061 38.7156 33.3942 38.5378 34.0386 38.7749C34.7299 39.0306 35.1898 39.511 35.293 40.2597C35.4088 41.0926 35.1585 41.7976 34.4328 42.2655C33.0626 43.1515 31.6768 44.0124 30.2972 44.8827C27.7883 46.4643 25.2764 48.0396 22.7737 49.6274C20.1898 51.2652 17.5402 51.4648 14.7842 50.0704C13.3921 49.3654 11.9687 48.7166 10.5767 48.0147C9.54747 47.4937 8.55894 47.5249 7.5579 48.0646C7.15748 48.2798 6.7508 48.5044 6.32223 48.6386C5.75915 48.8133 5.60899 48.6916 5.53704 48.1207C5.19606 45.4099 4.87072 42.6991 4.51097 39.9914C4.44215 39.4798 4.53913 39.1866 5.06467 39.0182C6.3629 38.6002 7.61733 37.9513 8.94371 37.7361C11.3963 37.3399 13.755 37.7922 15.56 39.6452C16.658 40.7744 17.9656 41.233 19.4296 41.4295C20.5089 41.573 21.5944 41.6479 22.6799 41.7321C23.8029 41.8226 24.5819 42.6773 24.5443 43.8065C24.5099 44.7985 23.5933 45.6845 22.5329 45.6283C21.1126 45.5534 19.6987 45.3943 18.2816 45.2664C16.9708 45.1479 15.657 45.0325 14.3462 44.9015C13.9239 44.8578 13.6486 44.9857 13.5986 45.4255C13.5485 45.8591 13.8175 46.0058 14.2023 46.0463C16.5861 46.299 18.976 46.5548 21.3692 46.8075Z" fill="white"/>
<path d="M13.2544 19.4249C15.5318 18.3954 17.7529 18.3705 20.0428 19.4186C20.0553 19.2159 20.074 19.0536 20.0772 18.8914C20.0803 17.6312 20.0772 16.3678 20.0834 15.1075C20.0866 14.468 20.3024 14.1842 20.7591 14.1842C21.2159 14.1842 21.4599 14.4899 21.463 15.0951C21.4692 16.7078 21.4567 18.3175 21.4786 19.9302C21.4818 20.1579 21.5912 20.4543 21.757 20.5978C25.073 23.4833 25.1481 28.7708 21.9009 31.806C19.6142 33.9397 16.2138 34.5043 13.4859 33.2004C10.5391 31.7935 8.79667 28.8768 9.05944 25.67C9.22524 23.658 10.048 21.9391 11.5965 20.5884C11.7529 20.4512 11.8624 20.1798 11.8655 19.9708C11.8874 18.3611 11.8749 16.7484 11.8843 15.1356C11.8843 14.9297 11.878 14.6459 12 14.5398C12.1971 14.3682 12.5506 14.1686 12.7383 14.2403C12.9635 14.3245 13.2169 14.6739 13.2294 14.9235C13.2857 15.9529 13.2544 16.9886 13.2576 18.0211C13.2576 18.4672 13.2544 18.9164 13.2544 19.4249ZM17.3462 31.3755C17.5026 31.3256 17.6715 31.2757 17.8342 31.2164C18.9635 30.7953 19.8144 29.6286 19.8207 28.4931C19.83 27.2048 19.1449 26.1598 17.9312 25.7605C17.4619 25.6045 16.9364 25.5983 16.4327 25.5702C15.4567 25.514 14.8936 24.9681 14.9218 24.0604C14.9468 23.2056 15.6663 22.5318 16.5391 22.5225C17.3556 22.5162 17.9406 22.8781 18.3566 23.5675C18.5912 23.9574 18.9385 24.0635 19.3483 23.8389C19.7018 23.6455 19.78 23.2493 19.5641 22.8313C19.2106 22.1513 18.6882 21.6241 17.9781 21.3683C17.537 21.2092 17.3212 21.047 17.3493 20.5416C17.3744 20.1486 17.0803 19.8928 16.6736 19.8834C16.2544 19.8741 16.0417 20.1423 15.9948 20.5385C15.9698 20.7444 15.9729 20.9534 15.9635 21.1718C15.7821 21.231 15.6163 21.2809 15.4567 21.3402C14.3274 21.7707 13.5297 22.8906 13.4953 24.0853C13.4578 25.2926 14.1491 26.3906 15.3316 26.8149C15.8259 26.9927 16.3921 26.9802 16.9301 27.027C17.9218 27.1143 18.4724 27.6696 18.4254 28.5586C18.3785 29.404 17.6528 30.0497 16.7612 30.0528C16.0136 30.0528 15.4536 29.7471 15.0563 29.1108C14.7278 28.5867 14.3618 28.4682 13.9739 28.7052C13.5798 28.9486 13.5454 29.3572 13.8644 29.8969C14.3243 30.6767 15.0188 31.1353 15.8603 31.3786C15.951 32.3519 16.1199 32.642 16.5923 32.667C17.0396 32.6857 17.1835 32.4424 17.3462 31.3755Z" fill="white"/>
<path d="M37.8363 22.8719C37.6799 23.8514 37.5266 24.7311 37.4046 25.6139C37.3639 25.9196 37.2482 26.035 36.9385 26.1255C35.781 26.4624 34.586 26.7431 33.5068 27.2578C32.659 27.6602 31.9614 28.3777 31.195 28.9517C31.0605 29.0515 30.9166 29.2106 30.7727 29.2137C29.6903 29.2355 28.6048 29.2262 27.5037 29.2262C27.4004 26.8149 27.3066 24.4659 28.8394 22.432C30.3472 20.4324 32.3618 19.428 34.8582 19.4124C36.6851 19.3999 38.5151 19.3843 40.3389 19.4467C43.9802 19.5746 47.0083 22.5942 47.1835 26.2409C47.2304 27.2141 47.1898 28.1937 47.1898 29.2262C46.2451 29.2262 45.3379 29.2418 44.4307 29.2137C44.2711 29.2075 44.0959 29.0484 43.9677 28.9236C42.0688 27.0519 40.1762 25.1709 38.2805 23.2961C38.1648 23.1713 38.0365 23.059 37.8363 22.8719Z" fill="white"/>
<path d="M31.8707 13.0456C31.8613 10.0259 34.3264 7.56781 37.3608 7.57093C40.3389 7.57405 42.7758 9.99786 42.8008 12.9832C42.8259 16.0091 40.3827 18.4734 37.342 18.4859C34.3483 18.4984 31.8801 16.0434 31.8707 13.0456Z" fill="white"/>
<path d="M38.6058 25.2582C40.2075 26.8616 41.756 28.4058 43.3451 29.9967C41.8123 31.4379 40.2607 32.8978 38.6183 34.4419C38.5214 33.6402 38.4369 32.9415 38.3462 32.1928C37.1043 32.121 35.8874 32.146 34.8144 32.8697C33.8415 33.5248 33.6131 34.5261 33.757 35.6055C33.8634 36.3916 34.0949 37.159 34.2701 37.9264C32.1491 37.4397 30.7539 35.7926 30.7946 33.4686C30.8477 30.5239 32.2023 28.7208 35.1585 27.7538C36.0219 27.4731 36.9228 27.3108 37.8144 27.1174C38.1491 27.0457 38.3837 26.9646 38.3962 26.5466C38.4119 26.1379 38.5245 25.7293 38.6058 25.2582Z" fill="white"/>
<path d="M0 39.1024C1.06048 38.9558 2.10219 38.8092 3.22211 38.6532C3.6757 42.356 4.12617 46.0307 4.58603 49.7803C3.04692 49.9831 1.54223 50.1827 0 50.3855C0 46.6234 0 42.8988 0 39.1024Z" fill="white"/>
<path d="M21.5787 40.4531C22.2576 40.085 22.902 39.7325 23.5464 39.3863C24.8446 38.6906 26.1366 37.9825 27.4442 37.3056C28.1137 36.9593 28.8363 36.8314 29.5871 37.0124C30.3128 37.187 30.8227 37.6269 31.2294 38.3038C30.4692 38.7312 29.7404 39.1398 29.0115 39.5454C27.7852 40.2285 26.5621 40.9148 25.3326 41.5855C25.2106 41.651 24.9573 41.6822 24.8884 41.6104C24.0845 40.7619 23.0647 40.5498 21.9573 40.5685C21.8697 40.5685 21.7821 40.5592 21.6945 40.5529C21.682 40.5498 21.6726 40.5342 21.5787 40.4531Z" fill="white"/>
<path d="M16.5203 38.9215C16.8425 38.7405 17.1554 38.5596 17.4744 38.388C18.6131 37.7673 19.7518 37.1527 20.8936 36.5351C22.4108 35.7147 23.5308 36.1015 24.2503 37.7267C23.6934 38.0387 23.1303 38.3537 22.5672 38.6657C21.6913 39.1492 20.8248 39.6421 19.9364 40.0944C19.6924 40.2192 19.3608 40.294 19.1011 40.241C18.1439 40.0445 17.1491 39.8885 16.5203 38.9215Z" fill="white"/>
<path d="M17.3619 14.9827C17.3619 15.4725 17.3744 15.9623 17.3587 16.452C17.3431 16.948 17.0459 17.2693 16.6298 17.2319C16.1512 17.1913 15.9823 16.8731 15.9823 16.4333C15.9823 15.4195 15.9792 14.4025 15.9854 13.3887C15.9885 12.9457 16.17 12.64 16.6517 12.6151C17.0803 12.5932 17.3462 12.8896 17.3619 13.4074C17.3712 13.9315 17.3619 14.4587 17.3619 14.9827Z" fill="white"/>
</g>
<defs>
<clipPath id="clip0_46_41">
<rect width="51" height="51" fill="white"/>
</clipPath>
</defs>
</svg>
