<svg width="55" height="59" viewBox="0 0 55 59" fill="none" xmlns="http://www.w3.org/2000/svg">
<g clip-path="url(#clip0_46_66)">
<path d="M26.3843 0C30.2424 0.951696 33.6856 2.7217 36.7164 5.33052C39.2033 7.47248 40.2659 10.225 40.2128 13.4751C40.1925 14.7141 40.1166 15.9505 40.1014 17.1895C40.0888 18.1669 39.8282 19.1827 40.9793 19.8676C41.3335 20.078 41.4676 20.9476 41.4271 21.4965C41.3714 22.243 41.1969 23.0613 40.8174 23.6872C38.882 26.8758 37.1313 30.2337 34.8114 33.1195C31.1329 37.6959 25.2864 37.5753 21.4384 33.1631C19.1185 30.5004 17.0364 27.6479 15.693 24.3388C15.2705 23.3024 15.0883 22.1301 14.9973 21.004C14.9568 20.4987 15.2781 19.7137 15.6778 19.4751C16.543 18.9621 16.4216 18.3028 16.3963 17.5204C16.3356 15.5606 16.1914 13.5803 16.376 11.6358C16.7732 7.42374 19.4018 4.88417 23.0879 3.45535C24.4388 2.93204 24.9853 2.42157 24.4161 1.0107C24.2972 0.715696 24.3756 0.338609 24.3604 0C25.0359 0 25.7114 0 26.3843 0ZM38.3432 16.1147C34.2776 16.638 30.6042 15.2579 26.8397 14.4114C24.3427 13.8496 21.8457 13.8342 19.3436 14.5679C18.4151 14.8398 18.1419 15.2553 18.2836 16.1814C18.4733 17.4307 18.5568 18.6979 18.6833 19.9497C16.032 20.3601 15.6753 21.0399 16.7277 23.4692C16.7606 23.5461 16.7732 23.6385 16.8188 23.7077C18.6783 26.5474 20.3202 29.5744 22.4554 32.1832C25.8278 36.2953 31.0545 36.0131 34.227 31.7317C35.6387 29.8283 36.8353 27.7556 38.0674 25.7214C38.7454 24.6004 39.3981 23.4435 39.8763 22.225C40.3974 20.9014 40.0686 20.5294 38.6999 20.5038C38.328 20.4961 37.9561 20.4704 37.445 20.4499C37.7486 19.0057 38.0295 17.6461 38.3432 16.1147Z" fill="white"/>
<path d="M43.8406 59C42.2038 58.2766 40.3797 57.8149 38.9655 56.7785C35.1909 54.0184 34.0853 48.7494 36.1244 44.4886C38.1357 40.2816 42.8641 37.9909 47.3116 39.0657C52.0552 40.2124 55.124 44.3398 54.9975 49.4087C54.8862 53.9286 51.4657 57.9047 46.9448 58.782C46.7475 58.8204 46.5628 58.9256 46.3731 59C45.5281 59 44.6856 59 43.8406 59ZM43.5699 50.4963C43.5699 51.625 43.6028 52.5998 43.5623 53.572C43.5117 54.7802 44.3668 54.5545 45.0373 54.5468C45.7381 54.5365 46.6665 54.829 46.621 53.5387C46.5881 52.569 46.6134 51.5968 46.6134 50.4989C47.6532 50.4989 48.5715 50.4501 49.4823 50.5117C50.6208 50.5887 50.6967 49.9012 50.6461 49.0444C50.6005 48.2312 50.9142 47.2231 49.5127 47.2898C48.569 47.3334 47.6228 47.2975 46.6134 47.2975C46.6134 46.4843 46.6134 45.8917 46.6134 45.2992C46.6134 43.1701 46.5856 43.1675 44.5262 43.2675C43.8432 43.3009 43.5269 43.5138 43.5573 44.2449C43.5978 45.2145 43.5674 46.1893 43.5674 47.2949C42.8211 47.2949 42.2013 47.2949 41.5814 47.2949C39.4133 47.2949 39.4411 47.2949 39.5272 49.4984C39.555 50.2064 39.7953 50.5168 40.491 50.504C41.46 50.4835 42.4264 50.4963 43.5699 50.4963Z" fill="white"/>
<path d="M20.0368 36.9212C21.5016 40.4124 24.2162 42.5287 28.2084 42.5313C32.1348 42.5339 34.733 40.4073 36.175 36.6544C36.8783 37.0494 37.5589 37.4291 38.3002 37.8446C32.8457 41.9182 31.1051 47.2026 33.1847 53.8388C32.6762 53.8388 32.2309 53.8388 31.7857 53.8388C22.5617 53.8388 13.3376 53.7772 4.11363 53.8644C-0.17961 53.9055 -0.242858 51.6301 0.156866 48.9418C0.713444 45.2145 2.82085 42.58 6.31211 41.3308C8.83442 40.4278 11.5009 39.9404 14.0637 39.1401C16.0497 38.5167 17.9749 37.6933 20.0368 36.9212Z" fill="white"/>
</g>
<defs>
<clipPath id="clip0_46_66">
<rect width="55" height="59" fill="white"/>
</clipPath>
</defs>
</svg>
