<svg width="60" height="60" viewBox="0 0 60 60" fill="none" xmlns="http://www.w3.org/2000/svg">
<g clip-path="url(#clip0_46_104)">
<path d="M59.9998 29.9348C60.0216 46.3999 46.6194 59.8913 30.2933 60C13.5759 60.1123 0.0360766 46.5628 -0.00015529 30.2028C-0.0400104 13.4154 13.3332 0 30.0904 0C46.4781 0 59.9998 13.4046 59.9998 29.9348ZM29.9817 56.7548C44.7607 56.7584 56.7535 44.7845 56.7716 30.0072C56.7861 15.2481 44.8078 3.25244 30.0252 3.22347C15.2752 3.19449 3.2426 15.1865 3.22448 29.9312C3.20637 44.7338 15.1919 56.7512 29.9817 56.7548Z" fill="white"/>
<path d="M29.9746 26.9359C26.5544 26.9359 23.1341 26.9359 19.7101 26.9359C18.4384 26.9359 18.3768 26.8671 18.2101 25.6031C17.7899 22.405 17.3551 19.2105 16.913 16.016C16.8587 15.6284 16.8261 15.2626 17.2101 15.0525C17.6159 14.8352 17.9855 14.9656 18.3116 15.2699C19.971 16.8164 21.6594 18.3303 23.2826 19.9131C24.3261 20.9308 24.8986 20.9055 25.4384 19.4676C26.5761 16.4289 27.8333 13.4372 29.0399 10.4274C29.0906 10.3043 29.1087 10.1377 29.2029 10.0652C29.4565 9.8624 29.7428 9.55091 30.0145 9.55454C30.2826 9.55816 30.6812 9.83704 30.7899 10.0906C31.7681 12.4267 32.692 14.7881 33.6341 17.1387C34.0471 18.1674 34.4457 19.2068 34.8804 20.2246C35.1123 20.7642 35.7428 20.7968 36.2862 20.3115C36.942 19.7211 37.5833 19.1163 38.2283 18.5151C39.3333 17.4792 40.4384 16.4397 41.5435 15.4039C41.6812 15.2735 41.8261 15.0924 41.9928 15.0598C42.2573 15.0091 42.6087 14.9692 42.8007 15.0996C42.9855 15.2264 43.1268 15.5958 43.0978 15.8312C42.663 19.2394 42.1993 22.644 41.7355 26.0486C41.6377 26.7657 41.4167 26.9359 40.587 26.9359C37.0471 26.9359 33.5109 26.9323 29.9746 26.9359Z" fill="white"/>
<path d="M27.2826 31.4995C27.0797 32.1297 26.9166 32.6548 26.7391 33.1764C25.25 37.49 23.7536 41.8037 22.2753 46.121C22.1521 46.4832 22.0036 46.6389 21.5942 46.6244C20.6739 46.5918 19.75 46.5954 18.8261 46.6244C18.4529 46.6353 18.279 46.5121 18.1666 46.1608C17.134 42.9663 16.0869 39.7754 15.0398 36.5846C14.5507 35.0887 14.0579 33.5965 13.5652 32.1043C13.5072 31.9268 13.4601 31.7494 13.3949 31.5284C14.6159 31.5284 15.779 31.5284 16.9963 31.5284C18.1195 35.498 19.2355 39.4531 20.3478 43.3756C20.7826 41.7892 21.2101 40.1557 21.6811 38.5295C22.3116 36.3383 22.9855 34.1615 23.6123 31.9703C23.7174 31.6081 23.8659 31.4813 24.2427 31.4922C25.221 31.5176 26.1992 31.4995 27.2826 31.4995Z" fill="white"/>
<path d="M38.9529 41.0323C38.9529 42.9011 38.9529 44.7193 38.9529 46.5774C37.8587 46.5774 36.8116 46.5774 35.7137 46.5774C35.7137 41.6371 35.7137 36.6969 35.7137 31.6625C36.6014 31.5864 37.4964 31.4452 38.3913 31.4452C39.7898 31.4452 41.2101 31.3981 42.5761 31.6299C45.2681 32.0826 46.8043 33.9044 46.6051 36.4796C46.4565 38.3883 45.2536 39.9964 43.1775 40.5578C42.0108 40.8729 40.7608 40.8874 39.5471 41.0323C39.3804 41.0504 39.2101 41.0323 38.9529 41.0323ZM38.9637 33.7632C38.9637 35.3423 38.9565 36.8707 38.9782 38.4028C38.9782 38.5151 39.2137 38.7215 39.3297 38.7179C40.1087 38.6744 40.913 38.6925 41.6522 38.4897C42.721 38.1963 43.2898 37.3597 43.3442 36.2659C43.3877 35.3459 43.1123 34.5455 42.2029 34.0565C41.1703 33.4988 40.1051 33.6581 38.9637 33.7632Z" fill="white"/>
<path d="M32.3044 46.5845C31.2246 46.5845 30.192 46.5845 29.1087 46.5845C29.1087 41.59 29.1087 36.5918 29.1087 31.5465C30.1522 31.5465 31.2102 31.5465 32.3044 31.5465C32.3044 36.5519 32.3044 41.5356 32.3044 46.5845Z" fill="white"/>
</g>
<defs>
<clipPath id="clip0_46_104">
<rect width="60" height="60" fill="white"/>
</clipPath>
</defs>
</svg>
