<svg width="58" height="57" viewBox="0 0 58 57" fill="none" xmlns="http://www.w3.org/2000/svg">
<path d="M58 6.58699C57.2602 7.90439 56.1387 8.45694 54.6058 8.34643C53.5435 8.27082 52.4722 8.33189 51.2649 8.33189C51.2294 8.86699 51.1761 9.30903 51.1761 9.75398C51.1702 13.3834 51.182 17.0128 51.1672 20.6421C51.1554 23.6288 49.519 25.2399 46.4533 25.2661C43.8758 25.2894 41.3013 25.2719 38.7239 25.2719C38.3066 25.2719 37.8894 25.2719 37.3331 25.2719C37.7414 27.7497 38.0817 30.0762 38.5138 32.3882C38.9192 34.5432 38.6144 36.5876 37.7237 38.5652C37.0963 39.9523 36.4394 41.325 35.7795 42.6977C34.9095 44.5065 34.7645 46.4085 34.945 48.3482C37.8746 49.2352 38.1054 49.494 38.0433 52.5505C38.0137 54.0366 37.7799 55.5168 37.6379 57C37.3804 57 37.123 57 36.8655 57C36.7116 56.4911 36.4542 55.9909 36.4276 55.4761C36.3624 54.2576 36.3595 53.0275 36.4187 51.8089C36.4779 50.6137 35.9926 50.1426 34.7645 50.1571C30.9442 50.2007 27.1239 50.1716 23.3036 50.1716C20.9688 50.1716 21.0072 50.1745 20.951 52.5156C20.9155 54.0104 20.738 55.5052 20.6226 56.9971C20.3651 56.9971 20.1077 56.9971 19.8502 56.9971C19.0068 55.9123 19.0187 50.4334 19.9567 49.4999C20.442 49.0142 21.1404 48.735 21.9571 48.229C21.9571 47.2053 21.9571 45.949 21.9571 44.6927C21.9571 43.637 22.037 42.5755 21.9423 41.5315C21.5843 37.5502 22.3389 33.8074 24.3482 30.3351C24.8483 29.4684 24.6411 28.9566 23.9457 28.2993C23.0787 27.4763 22.3951 26.4614 21.4186 25.269C18.5215 25.269 15.222 25.2807 11.9196 25.2603C11.1946 25.2545 10.443 25.2254 9.75643 25.0335C7.90398 24.5129 6.85051 22.9919 6.83867 20.8835C6.81796 17.2134 6.83276 13.5433 6.83276 9.87321C6.83276 9.41954 6.83276 8.96296 6.83276 8.32898C5.59878 8.32898 4.49204 8.26791 3.39714 8.34352C1.85837 8.45403 0.739796 7.90148 0 6.58699C0 4.39133 0 2.19566 0 0C19.3323 0 38.6677 0 58 0C58 2.19566 58 4.39133 58 6.58699ZM35.6996 25.3476C35.1788 25.3127 34.8829 25.2778 34.5869 25.2719C32.6102 25.2341 32.483 25.2283 32.3498 27.1419C32.19 29.4481 32.3084 31.7717 32.2196 34.0837C32.2048 34.4646 31.7491 34.8282 31.4946 35.2004C31.2076 34.9009 30.6779 34.6101 30.669 34.3018C30.592 32.0334 30.5299 29.7563 30.6423 27.4909C30.7193 25.8972 31.1632 24.321 31.2579 22.7244C31.2845 22.2649 30.74 21.4681 30.3257 21.3692C29.9114 21.2703 29.2782 21.7967 28.8432 22.1631C28.6271 22.3463 28.6449 22.7913 28.5443 23.1141C27.8962 25.2109 27.5618 27.4705 26.532 29.3666C24.0789 33.8801 23.1497 38.5971 23.5995 43.6399C23.6676 44.3931 23.6084 45.158 23.6084 45.9199C23.6084 46.7516 23.6084 47.5834 23.6084 48.4878C26.8842 48.4878 29.9913 48.4878 33.3174 48.4878C32.5984 44.2768 34.8444 40.9498 36.3861 37.4077C36.7649 36.5382 37.0638 35.5029 36.9691 34.5868C36.6525 31.4983 36.1405 28.4302 35.6996 25.3476ZM27.0262 21.8316C19.4122 19.95 16.8348 10.6264 23.5048 5.08638C20.6995 5.08638 17.9918 5.08638 15.2812 5.08638C14.5148 8.82046 12.2066 10.9696 8.48102 11.7199C8.48102 13.2903 8.44255 14.7618 8.51061 16.2334C8.52541 16.5329 8.88643 17.0069 9.17051 17.0738C12.6387 17.9172 14.5503 20.1681 15.3167 23.6027C18.5778 23.6027 21.8358 23.5445 25.088 23.6317C26.4137 23.6666 27.1476 23.3496 27.0262 21.8316ZM33.0334 23.5387C36.247 23.5387 39.4489 23.5387 42.701 23.5387C43.4615 19.8686 45.7135 17.6584 49.448 16.9401C49.448 15.1457 49.448 13.4328 49.448 11.685C45.6602 10.958 43.4615 8.69541 42.6951 5.08929C39.9342 5.08929 37.262 5.08929 34.513 5.08929C40.2449 11.2197 39.6856 16.3613 32.844 21.2558C32.9061 21.9915 32.9683 22.7331 33.0334 23.5387ZM36.688 13.0809C36.6761 9.0502 34.001 5.93556 30.3435 5.3074C26.6031 4.66469 22.981 6.70332 21.7145 10.1698C20.4657 13.5811 21.8802 17.4519 25.1146 19.252C26.3782 19.9558 27.7039 20.5549 29.2249 19.761C29.5978 19.5661 30.1511 19.7261 30.6128 19.665C31.3466 19.5661 32.1811 19.6039 32.7818 19.2608C35.3119 17.8125 36.6081 15.5878 36.688 13.0809ZM51.2471 6.70332C52.0491 6.70332 52.6883 6.70332 53.3275 6.70332C56.5145 6.69459 56.2926 7.00867 56.2896 3.75153C56.2866 1.68673 56.2866 1.68383 54.1235 1.68383C37.3774 1.68383 20.6314 1.68383 3.88541 1.68383C3.54214 1.68383 3.19888 1.69255 2.85561 1.68673C2.12765 1.6751 1.71633 1.98337 1.71633 2.73367C1.71929 3.705 1.62163 4.68796 1.76367 5.63893C1.82286 6.03153 2.36439 6.61898 2.73133 6.65388C4.03633 6.77893 5.35908 6.70332 6.72918 6.70332C6.72918 6.06643 6.72918 5.58949 6.72918 5.0951C6.47469 5.0602 6.30898 5.02821 6.14327 5.01367C5.44786 4.95551 4.44765 5.19398 4.47429 4.14704C4.50092 3.1001 5.50408 3.40255 6.19061 3.3473C6.23204 3.34439 6.27643 3.3473 6.32082 3.3473C21.4363 3.3473 36.5489 3.3473 51.6644 3.3473C51.8804 3.3473 52.129 3.2775 52.3006 3.36184C52.7415 3.57995 53.1499 3.86495 53.5701 4.12668C53.1795 4.42041 52.8214 4.78102 52.3864 4.98459C52.0728 5.13 51.6585 5.06893 51.2501 5.10383C51.2471 5.63311 51.2471 6.07806 51.2471 6.70332ZM8.59051 5.08347C8.59051 6.71786 8.59051 8.27663 8.59051 9.84704C11.2271 9.53296 13.3222 7.40418 13.3341 5.08347C11.7687 5.08347 10.2033 5.08347 8.59051 5.08347ZM49.4036 9.78597C49.4036 8.21556 49.4036 6.64806 49.4036 5.10964C47.7257 5.10964 46.1692 5.10964 44.6067 5.10964C44.9027 7.68628 47.0629 9.75689 49.4036 9.78597ZM8.60531 18.8129C7.96316 22.7855 9.29184 24.0883 13.3755 23.4863C13.2305 21.0435 11.0259 18.8798 8.60531 18.8129ZM49.3917 18.8071C46.9445 18.9089 44.7399 21.0813 44.6304 23.4892C48.72 24.0709 50.0516 22.7622 49.3917 18.8071ZM26.1355 25.4028C25.2626 25.4028 24.5168 25.4028 23.3953 25.4028C24.218 26.2491 24.792 26.8423 25.5407 27.6188C25.7774 26.7347 25.9372 26.1473 26.1355 25.4028Z" fill="white"/>
<path d="M11.9551 15.5354C11.6059 15.0468 11.1857 14.7124 11.2242 14.4449C11.2656 14.1599 11.7568 13.7265 12.0291 13.7411C12.3132 13.7585 12.763 14.218 12.7837 14.5088C12.8014 14.7764 12.3487 15.0759 11.9551 15.5354Z" fill="white"/>
<path d="M47.1368 14.3983C46.6426 14.7822 46.3408 15.2068 46.0508 15.1951C45.746 15.1864 45.456 14.7647 45.1571 14.5205C45.4176 14.2384 45.6484 13.776 45.9502 13.7265C46.2343 13.6829 46.5923 14.0697 47.1368 14.3983Z" fill="white"/>
<path d="M31.0981 9.55042C31.4502 9.72491 31.8231 9.87032 32.1486 10.0855C32.4415 10.2804 32.9268 10.609 32.8884 10.7777C32.8114 11.1034 32.4504 11.3942 32.1574 11.6385C31.8911 11.8595 31.4147 11.9322 31.2815 12.1939C30.6542 13.4299 29.6777 14.1337 28.0471 14.6048C28.9527 15.4046 29.9173 16.1549 30.7341 17.0331C31.0448 17.3676 31.0182 18.0015 31.1484 18.4959C30.6364 18.3971 29.9795 18.461 29.6362 18.1673C28.3105 17.0331 27.0558 15.8117 25.8396 14.5641C25.4963 14.2122 25.372 13.6567 25.1471 13.1943C25.6295 13.017 26.097 12.7581 26.5971 12.6767C27.547 12.5197 28.6656 12.9879 29.5918 11.6647C28.3667 11.6647 27.3636 11.7432 26.387 11.6298C25.9491 11.5774 25.5555 11.1412 25.1412 10.8795C25.5407 10.609 25.9165 10.1553 26.3427 10.103C27.3073 9.98664 28.2957 10.0652 29.2722 10.0652C29.3196 9.94011 29.3669 9.81506 29.4143 9.69001C28.9349 9.5068 28.4673 9.23343 27.9702 9.15782C27.3399 9.06476 26.6711 9.21016 26.0467 9.09384C25.7153 9.03277 25.2389 8.66343 25.2093 8.39297C25.1797 8.12542 25.6206 7.55542 25.8692 7.5467C27.9702 7.4769 30.0742 7.47981 32.1752 7.53797C32.4356 7.54379 32.9209 8.04399 32.8854 8.24465C32.8292 8.56746 32.4682 8.89608 32.1545 9.09384C31.9355 9.23052 31.5774 9.152 31.2786 9.16945C31.2194 9.30032 31.1602 9.42537 31.0981 9.55042Z" fill="white"/>
</svg>
